<?xml version="1.0" encoding="UTF-8"?>
<svg version="1.1" xmlns="http://www.w3.org/2000/svg" width="175" height="169">
<path d="M0 0 C57.75 0 115.5 0 175 0 C175 55.77 175 111.54 175 169 C117.25 169 59.5 169 0 169 C0 113.23 0 57.46 0 0 Z " fill="#F9FAFA" transform="translate(0,0)"/>
<path d="M0 0 C0 2.31 0 4.62 0 7 C-0.70906494 7.02916504 -1.41812988 7.05833008 -2.14868164 7.08837891 C-26.52326852 8.20682367 -44.31843194 13.13652281 -62 31 C-62.495 31.99 -62.495 31.99 -63 33 C-62.34 33 -61.68 33 -61 33 C-60.78988281 32.43023437 -60.57976563 31.86046875 -60.36328125 31.2734375 C-54.82416535 22.0362872 -38.95730656 15.59667912 -29.15234375 12.96875 C-19.85095502 10.9020268 -8.17866115 8.94044628 1 12 C1 13.98 1 15.96 1 18 C-0.485 17.7525 -0.485 17.7525 -2 17.5 C-22.28931351 15.1067183 -39.51182916 18.73122796 -55.84765625 31.16796875 C-64.67888039 38.69382341 -70.14761662 47.13664403 -74 58 C-74.35191406 58.85207031 -74.70382813 59.70414063 -75.06640625 60.58203125 C-80.29110132 74.11377288 -77.16583805 91.16153141 -71.71484375 104.03515625 C-68.20721255 110.98202473 -63.46948164 116.51112303 -58 122 C-57.18789062 122.84691406 -57.18789062 122.84691406 -56.359375 123.7109375 C-44.9094249 134.64043532 -28.95141718 138.50138567 -13.62890625 138.42431641 C4.730601 137.911654 20.07386953 130.47454919 32.6875 117.3125 C40.86718049 107.91942886 45.39586648 96.5045676 46.8125 84.25 C47.76483847 77.415571 47.76483847 77.415571 50.875 74.625 C54 73 54 73 56.3125 73.125 C58 74 58 74 59 75 C60.32537367 90.24179722 54.83498793 104.85492903 45.7578125 117 C43.59537752 119.45425147 41.37206618 121.74882998 39 124 C37.97712891 124.98226562 37.97712891 124.98226562 36.93359375 125.984375 C21.10282244 140.48300704 2.60051358 143.67222752 -18.22167969 143.12744141 C-37.35617371 142.24974317 -52.20626545 132.09847082 -65.30859375 118.859375 C-67.0100254 116.988979 -68.51867665 115.04757846 -70 113 C-59.78181362 127.78375902 -47.62160522 139.63569431 -30 145 C-28.84242187 145.35320312 -27.68484375 145.70640625 -26.4921875 146.0703125 C-11.48601563 149.71087341 5.94644623 148.19476696 20 142 C20.98613281 141.5771875 21.97226563 141.154375 22.98828125 140.71875 C38.55696035 133.1436077 51.28857846 118.17109589 57 102 C58.62870597 96.06402368 59.84690573 90.04357056 61 84 C61.33 84 61.66 84 62 84 C63.20673919 99.08423993 55.21219793 115.63890226 46.125 127.375 C44.7743691 128.93806023 43.39869177 130.47979526 42 132 C41.25105469 132.84046875 40.50210938 133.6809375 39.73046875 134.546875 C26.64401685 148.50011935 7.83642783 157.58090402 -11.36328125 158.25 C-13.30453858 158.28181587 -15.24600723 158.30259608 -17.1875 158.3125 C-18.10192871 158.31805908 -19.01635742 158.32361816 -19.95849609 158.3293457 C-38.19046949 158.13713622 -55.12094283 151.7919809 -69 140 C-69.99773437 139.21882813 -69.99773437 139.21882813 -71.015625 138.421875 C-86.37107875 125.96823928 -95.10034909 106.29155505 -98 87 C-99.80513665 62.16424866 -92.13348274 41.54852446 -75.98828125 22.64453125 C-57.3929829 2.67434948 -26.50721345 -7.37130519 0 0 Z " fill="#064878" transform="translate(100,10)"/>
<path d="M0 0 C-2.31 7.59 -4.62 15.18 -7 23 C-11 21 -11 21 -13 19 C-16.26266347 19.34763677 -18.17357137 20.69195413 -20.64453125 22.765625 C-21.66063477 23.60673828 -21.66063477 23.60673828 -22.69726562 24.46484375 C-23.39529297 25.05394531 -24.09332031 25.64304687 -24.8125 26.25 C-26.19230943 27.40308018 -27.57380578 28.55414491 -28.95703125 29.703125 C-29.62742432 30.27595215 -30.29781738 30.8487793 -30.98852539 31.43896484 C-33 33 -33 33 -35.05639648 34.04931641 C-37.24426095 35.19020863 -38.51902604 36.0116218 -40 38 C-41.03000913 43.84804802 -40.52299113 49.76910456 -40.28320312 55.67578125 C-40.19095726 64.85181734 -40.19095726 64.85181734 -42.63891602 68.32592773 C-44.66791578 70.13056809 -46.68628099 71.58453558 -49 73 C-49.89847656 73.63550781 -50.79695313 74.27101563 -51.72265625 74.92578125 C-52.49480469 75.38339844 -53.26695313 75.84101563 -54.0625 76.3125 C-54.83722656 76.78300781 -55.61195312 77.25351563 -56.41015625 77.73828125 C-59.52191797 79.25426773 -62.65662418 80.12834878 -66 81 C-65.99887207 80.29391602 -65.99774414 79.58783203 -65.99658203 78.86035156 C-66.00870003 75.65593158 -66.06634752 72.45389192 -66.125 69.25 C-66.12242188 68.13882813 -66.11984375 67.02765625 -66.1171875 65.8828125 C-66.14296875 64.81289062 -66.16875 63.74296875 -66.1953125 62.640625 C-66.21102295 61.16384277 -66.21102295 61.16384277 -66.22705078 59.65722656 C-66.95192311 56.10182453 -66.95192311 56.10182453 -73 53 C-73.33 63.23 -73.66 73.46 -74 84 C-77.196875 84.020625 -80.39375 84.04125 -83.6875 84.0625 C-85.18543091 84.07615601 -85.18543091 84.07615601 -86.71362305 84.09008789 C-87.51324463 84.09258545 -88.31286621 84.09508301 -89.13671875 84.09765625 C-89.94842529 84.10289307 -90.76013184 84.10812988 -91.59643555 84.11352539 C-94 84 -94 84 -99 83 C-99.495 69.14 -99.495 69.14 -100 55 C-105.89932773 59.02555148 -105.89932773 59.02555148 -106.77294922 62.31176758 C-106.78342285 63.08157959 -106.79389648 63.8513916 -106.8046875 64.64453125 C-106.83046875 65.48564453 -106.85625 66.32675781 -106.8828125 67.19335938 C-106.87894531 68.48983398 -106.87894531 68.48983398 -106.875 69.8125 C-106.895625 70.69615234 -106.91625 71.57980469 -106.9375 72.49023438 C-106.98440843 74.6597492 -106.99574089 76.8299823 -107 79 C-115.70016115 77.80798504 -122.64857652 70.66105136 -129 65 C-127.64492915 61.83209844 -126.31217904 60.19384681 -123.5 58.22265625 C-122.78650391 57.71557129 -122.07300781 57.20848633 -121.33789062 56.68603516 C-120.18063477 55.88238525 -120.18063477 55.88238525 -119 55.0625 C-117.36439521 53.90521375 -115.72898415 52.74765365 -114.09375 51.58984375 C-112.83111328 50.70208252 -112.83111328 50.70208252 -111.54296875 49.79638672 C-108.27760398 47.48968991 -105.04029833 45.14562382 -101.80493164 42.79711914 C-99.54979361 41.16112291 -97.28931156 39.53278558 -95.02734375 37.90625 C-92.58968325 36.15245548 -90.16387765 34.38536845 -87.75390625 32.59375 C-86.86574219 31.9440625 -85.97757813 31.294375 -85.0625 30.625 C-84.33160156 30.08101562 -83.60070312 29.53703125 -82.84765625 28.9765625 C-81.93306641 28.49316406 -81.93306641 28.49316406 -81 28 C-77.64955966 29.11681345 -76.85083657 30.0436896 -74.625 32.6875 C-74.01785156 33.40292969 -73.41070312 34.11835937 -72.78515625 34.85546875 C-72.19605469 35.56316406 -71.60695312 36.27085938 -71 37 C-70.48308594 37.61488281 -69.96617188 38.22976562 -69.43359375 38.86328125 C-68.2828273 40.23698821 -67.14041072 41.61768397 -66 43 C-62.41299483 41.72115468 -59.83663746 40.26728368 -56.9375 37.8125 C-50.79564705 32.75943007 -44.42106034 28.03232159 -38.04467773 23.28051758 C-37.20880127 22.65685303 -36.3729248 22.03318848 -35.51171875 21.390625 C-34.72200684 20.80216797 -33.93229492 20.21371094 -33.11865234 19.60742188 C-31.3876772 18.29413075 -29.6971529 16.92766975 -28.01953125 15.546875 C-26 14 -26 14 -24 14 C-24.99 8.555 -24.99 8.555 -26 3 C-22.60475892 2.49566711 -19.20890484 1.99638043 -15.8125 1.5 C-14.85279297 1.35691406 -13.89308594 1.21382812 -12.90429688 1.06640625 C-11.97294922 0.93105469 -11.04160156 0.79570313 -10.08203125 0.65625 C-9.22843018 0.53056641 -8.3748291 0.40488281 -7.49536133 0.27539062 C-5 0 -5 0 0 0 Z " fill="#034575" transform="translate(170,61)"/>
<path d="M0 0 C8.25 0 16.5 0 25 0 C25.43144717 9.92782635 25.77896115 19.8493174 25.98443127 29.78444099 C26.08311734 34.39941889 26.21655089 39.00759331 26.43334961 43.61865234 C27.79721796 73.38240265 27.79721796 73.38240265 23.15435791 81.04675293 C18.26317754 86.3037203 12.53276575 89.24373591 6 92 C4.31644004 92.97128968 2.63862381 93.95468196 1 95 C-0.87788672 93.12211328 -0.12008587 90.40834091 -0.12442017 87.91021729 C-0.12082489 87.03484314 -0.11722961 86.15946899 -0.11352539 85.25756836 C-0.11367142 84.3405867 -0.11381744 83.42360504 -0.1139679 82.47883606 C-0.1132684 79.43248164 -0.10547428 76.38618755 -0.09765625 73.33984375 C-0.0957922 71.23377007 -0.09436824 69.12769597 -0.09336853 67.0216217 C-0.08954231 61.46657117 -0.07971114 55.91154659 -0.06866455 50.35650635 C-0.05845267 44.6927526 -0.05387139 39.02899467 -0.04882812 33.36523438 C-0.03808896 22.24347631 -0.02049132 11.12174437 0 0 Z " fill="#767677" transform="translate(104,6)"/>
<path d="M0 0 C0 1.98 0 3.96 0 6 C-0.99 5.835 -1.98 5.67 -3 5.5 C-23.28931351 3.1067183 -40.51182916 6.73122796 -56.84765625 19.16796875 C-65.67888039 26.69382341 -71.14761662 35.13664403 -75 46 C-75.35191406 46.85207031 -75.70382813 47.70414063 -76.06640625 48.58203125 C-81.29110132 62.11377288 -78.16583805 79.16153141 -72.71484375 92.03515625 C-69.20721255 98.98202473 -64.46948164 104.51112303 -59 110 C-58.18789063 110.84691406 -58.18789063 110.84691406 -57.359375 111.7109375 C-45.9094249 122.64043532 -29.95141718 126.50138567 -14.62890625 126.42431641 C3.730601 125.911654 19.07386953 118.47454919 31.6875 105.3125 C39.86718049 95.91942886 44.39586648 84.5045676 45.8125 72.25 C46.76483847 65.415571 46.76483847 65.415571 49.875 62.625 C53 61 53 61 55.3125 61.125 C57 62 57 62 58 63 C59.32537367 78.24179722 53.83498793 92.85492903 44.7578125 105 C42.59537752 107.45425147 40.37206618 109.74882998 38 112 C36.97712891 112.98226562 36.97712891 112.98226562 35.93359375 113.984375 C20.10282244 128.48300704 1.60051358 131.67222752 -19.22167969 131.12744141 C-38.28057897 130.2532107 -53.39136372 120.12480823 -66.3828125 106.8203125 C-68.26260814 104.70440726 -69.65176062 102.48359886 -71 100 C-71.46664062 99.57589844 -71.93328125 99.15179688 -72.4140625 98.71484375 C-74.4896783 96.47052027 -75.39917743 94.19760711 -76.5625 91.375 C-76.97628906 90.39273438 -77.39007813 89.41046875 -77.81640625 88.3984375 C-84.0274428 70.5647682 -82.42567849 51.67305499 -74.47265625 34.75 C-72.10518887 30.2198843 -69.63510128 25.63510128 -66 22 C-64.67139075 21.64830932 -63.33841672 21.31229724 -62 21 C-61.75121094 20.42121094 -61.50242187 19.84242187 -61.24609375 19.24609375 C-56.69985941 11.05147072 -42.38064248 4.96794603 -34 2 C-23.67518534 -0.76725997 -10.374088 -3.45802933 0 0 Z " fill="#737374" transform="translate(101,22)"/>
<path d="M0 0 C8.25 0 16.5 0 25 0 C25 17.82 25 35.64 25 54 C23.35 52.68 21.7 51.36 20 50 C15.27954785 51.56747838 11.69997117 54.19939895 7.75 57.125 C1.11570248 62 1.11570248 62 0 62 C0 41.54 0 21.08 0 0 Z " fill="#757576" transform="translate(71,36)"/>
<path d="M0 0 C8.25 0 16.5 0 25 0 C27.52242492 36.07232496 27.52242492 36.07232496 23.44433594 44.0390625 C19.72167228 48.13014339 15.3233645 50.28914274 10.16748047 52.12304688 C6.69324502 53.52870735 3.98102686 55.75163123 1 58 C0.67 58 0.34 58 0 58 C0 38.86 0 19.72 0 0 Z " fill="#777777" transform="translate(38,64)"/>
<path d="M0 0 C0 1.98 0 3.96 0 6 C-0.99 5.835 -1.98 5.67 -3 5.5 C-23.28931351 3.1067183 -40.51182916 6.73122796 -56.84765625 19.16796875 C-65.67888039 26.69382341 -71.14761662 35.13664403 -75 46 C-75.35191406 46.85207031 -75.70382813 47.70414063 -76.06640625 48.58203125 C-80.98140781 61.31167963 -78.24604229 76.50328691 -74 89 C-73.41814977 90.25251772 -72.83094481 91.50256253 -72.23828125 92.75 C-71.82964844 93.8225 -71.42101562 94.895 -71 96 C-71.66 96.99 -72.32 97.98 -73 99 C-81.29136989 82.3517158 -84.62525134 63.43939852 -78.875 45.3125 C-76.05401541 37.14897463 -72.18602096 28.18602096 -66 22 C-64.67139075 21.64830932 -63.33841672 21.31229724 -62 21 C-61.75121094 20.42121094 -61.50242187 19.84242187 -61.24609375 19.24609375 C-56.69985941 11.05147072 -42.38064248 4.96794603 -34 2 C-23.67518534 -0.76725997 -10.374088 -3.45802933 0 0 Z " fill="#888889" transform="translate(101,22)"/>
<path d="M0 0 C9.4839596 6.12451887 16.51519082 14.66543971 21 25 C17.04 25.33 13.08 25.66 9 26 C7.53515625 23.52604167 6.0703125 21.05208333 4.60546875 18.578125 C3.10609209 16.0182044 3.10609209 16.0182044 1.3125 14.0625 C-0.50119007 11.21241561 -0.29648293 9.09214303 -0.1875 5.75 C-0.14689453 4.13351563 -0.14689453 4.13351563 -0.10546875 2.484375 C-0.07066406 1.66453125 -0.03585938 0.8446875 0 0 Z " fill="#787879" transform="translate(132,35)"/>
<path d="M0 0 C0.91628211 2.49026364 1.15697372 3.61222474 0.14453125 6.11328125 C-0.29503906 6.83902344 -0.73460937 7.56476562 -1.1875 8.3125 C-1.88552734 9.49779297 -1.88552734 9.49779297 -2.59765625 10.70703125 C-3.43748514 12.08023337 -4.27829587 13.45283683 -5.12109375 14.82421875 C-9.26013392 21.73335584 -11.55500321 28.95079332 -12 37 C-12.06445312 38.09183594 -12.12890625 39.18367188 -12.1953125 40.30859375 C-12.53261099 51.11338859 -10.91817755 60.89976046 -6.23828125 70.75 C-5.82964844 71.8225 -5.42101563 72.895 -5 74 C-5.66 74.99 -6.32 75.98 -7 77 C-15.29136989 60.3517158 -18.62525134 41.43939852 -12.875 23.3125 C-9.96172695 14.88190503 -5.98963351 6.68074506 0 0 Z " fill="#8D9397" transform="translate(35,44)"/>
<path d="M0 0 C9.12407636 5.14691487 16.77897793 14.45681966 21 24 C20.67 24.66 20.34 25.32 20 26 C19.5153125 25.29875 19.030625 24.5975 18.53125 23.875 C13.74697131 17.10340555 8.78958327 10.1483974 1.765625 5.53125 C1.18296875 5.0259375 0.6003125 4.520625 0 4 C0 2.68 0 1.36 0 0 Z " fill="#868687" transform="translate(132,26)"/>
<path d="M0 0 C2.93471562 2.84578484 5.66758968 5.75691765 8.3125 8.875 C12.97863283 14.26448529 18.274959 18.7728633 24 23 C23.34 23.66 22.68 24.32 22 25 C4.94448161 11.85886288 4.94448161 11.85886288 0 3 C0 2.01 0 1.02 0 0 Z " fill="#828282" transform="translate(29,118)"/>
<path d="M0 0 C0.66 0.33 1.32 0.66 2 1 C2 1.99 2 2.98 2 4 C-0.16015625 5.6484375 -0.16015625 5.6484375 -3.0625 7.375 C-7.5246072 10.0903133 -11.78936858 12.91220362 -16 16 C-16 13 -16 13 -14.1875 10.8125 C-9.87234899 6.72314178 -4.84589342 3.42013144 0 0 Z " fill="#EFF2F4" transform="translate(89,85)"/>
<path d="M0 0 C2 1 2 1 3 3 C1.96552734 3.52787109 1.96552734 3.52787109 0.91015625 4.06640625 C-6.83827332 8.13725471 -13.88989375 12.67985885 -20 19 C-20 15.29029236 -19.3057982 14.87349291 -16.75 12.3125 C-11.70466458 7.42142844 -5.9350012 3.71926742 0 0 Z " fill="#E8EBEE" transform="translate(57,25)"/>
<path d="M0 0 C0.66 0.33 1.32 0.66 2 1 C0.50253294 4.88997191 -1.70422078 6.46948052 -5.125 8.75 C-6.49011719 9.67039062 -6.49011719 9.67039062 -7.8828125 10.609375 C-8.93082031 11.29773438 -8.93082031 11.29773438 -10 12 C-10 9 -10 9 -7.8125 6.5625 C-5.28225355 4.25716434 -2.70944196 2.09014094 0 0 Z " fill="#EEF1F3" transform="translate(57,108)"/>
<path d="M0 0 C0.9599526 2.57361524 1.10863264 3.70485652 0.14453125 6.32421875 C-0.29503906 7.10410156 -0.73460937 7.88398437 -1.1875 8.6875 C-1.61417969 9.47511719 -2.04085937 10.26273438 -2.48046875 11.07421875 C-4.23985619 13.30398227 -5.23257781 13.6503685 -8 14 C-6.58036591 8.32146365 -3.60636039 4.46825784 0 0 Z " fill="#8E9296" transform="translate(35,44)"/>
<path d="M0 0 C3.49844386 0.63389235 5.84086876 2.05177694 8.75 4.0625 C9.94882812 4.88427734 9.94882812 4.88427734 11.171875 5.72265625 C12.07679687 6.35494141 12.07679687 6.35494141 13 7 C12.01 8.485 12.01 8.485 11 10 C9.35063952 8.71284028 7.70560953 7.42012981 6.0625 6.125 C5.14597656 5.40570313 4.22945312 4.68640625 3.28515625 3.9453125 C1 2 1 2 0 0 Z " fill="#7B7B7C" transform="translate(40,133)"/>
<path d="M0 0 C0.66 0.33 1.32 0.66 2 1 C-1.75 6.75 -1.75 6.75 -4 9 C-4.99 8.67 -5.98 8.34 -7 8 C-5.625 6 -5.625 6 -4 4 C-3.34 4 -2.68 4 -2 4 C-1.34 2.68 -0.68 1.36 0 0 Z " fill="#878788" transform="translate(41,39)"/>
<path d="M0 0 C3.88975419 3.59054233 6.89732195 7.73898882 10 12 C9.01 12 8.02 12 7 12 C5.17578125 9.8828125 5.17578125 9.8828125 3.3125 7.125 C2.37857422 5.76761719 2.37857422 5.76761719 1.42578125 4.3828125 C0 2 0 2 0 0 Z " fill="#D9DFE3" transform="translate(29,121)"/>
<path d="M0 0 C1 3 1 3 -0.4375 6.1875 C-1.2109375 7.5796875 -1.2109375 7.5796875 -2 9 C-2.99 8.67 -3.98 8.34 -5 8 C-2.25 1.125 -2.25 1.125 0 0 Z " fill="#7D8388" transform="translate(28,57)"/>
<path d="M0 0 C1 3 1 3 0.22265625 4.82421875 C-0.8515625 6.54947917 -1.92578125 8.27473958 -3 10 C-3.99 10 -4.98 10 -6 10 C-4.34832443 6.4213696 -2.21713508 3.25179812 0 0 Z " fill="#1C5681" transform="translate(153,122)"/>
<path d="M0 0 C0.33 0 0.66 0 1 0 C1.98248524 4.0527516 2.08159574 7.83861737 2 12 C1.34 12 0.68 12 0 12 C-0.92844389 7.66726186 -0.92844389 4.33273814 0 0 Z " fill="#7B8185" transform="translate(21,91)"/>
<path d="M0 0 C0.66 0.33 1.32 0.66 2 1 C-2 7.57142857 -2 7.57142857 -6 9 C-4.47291037 5.56404834 -2.40072955 2.88087546 0 0 Z " fill="#EBEEF0" transform="translate(154,79)"/>
<path d="M0 0 C0.93065133 2.60582371 1.14917407 3.64198224 0.0625 6.25 C-0.4634375 7.11625 -0.4634375 7.11625 -1 8 C-1.99 7.67 -2.98 7.34 -4 7 C-2.92598892 4.08482708 -2.22189824 2.22189824 0 0 Z " fill="#A8ACAF" transform="translate(35,44)"/>
<path d="M0 0 C-1.38081223 4.1424367 -3.59825558 5.32203099 -7 8 C-7 5 -7 5 -4.625 2.3125 C-2 0 -2 0 0 0 Z " fill="#D9E0E5" transform="translate(44,36)"/>
<path d="M0 0 C0.66 0.33 1.32 0.66 2 1 C-1.625 6.875 -1.625 6.875 -5 8 C-3.62845496 5.04590299 -2.01136276 2.55991624 0 0 Z " fill="#E8ECEF" transform="translate(123,87)"/>
</svg>
